<svg width="109" height="110" viewBox="0 0 109 110" fill="none" xmlns="http://www.w3.org/2000/svg">
<path d="M41.5958 51.1541C40.5758 50.1341 39.1925 49.5611 37.75 49.5611C36.3075 49.5611 34.9241 50.1341 33.9042 51.1541C32.8842 52.1741 32.3112 53.5575 32.3112 55C32.3112 56.4424 32.8842 57.8258 33.9042 58.8458L50.1542 75.0958C50.6603 75.5978 51.2605 75.995 51.9205 76.2645C52.5804 76.5341 53.2871 76.6707 54 76.6666C54.7415 76.6431 55.4703 76.4675 56.1412 76.1507C56.8121 75.8339 57.4107 75.3827 57.9 74.825L95.8166 31.4916C96.6921 30.4046 97.1143 29.0217 96.995 27.6311C96.8758 26.2405 96.2243 24.9496 95.1766 24.0275C94.1288 23.1055 92.7655 22.6234 91.3711 22.682C89.9766 22.7405 88.6585 23.335 87.6916 24.3416L54 63.3416L41.5958 51.1541Z" fill="#36C9BB"/>
<path d="M102.75 49.5833C101.313 49.5833 99.9356 50.154 98.9198 51.1698C97.9039 52.1856 97.3333 53.5634 97.3333 55C97.3333 66.4927 92.7678 77.5147 84.6412 85.6413C76.5146 93.7679 65.4926 98.3333 53.9999 98.3333C45.4421 98.3294 37.077 95.7916 29.9595 91.04C22.842 86.2883 17.2908 79.5356 14.0059 71.6333C10.721 63.731 9.84945 55.033 11.5012 46.6361C13.153 38.2391 17.2541 30.5193 23.2874 24.45C27.2996 20.3841 32.0824 17.1594 37.3559 14.9644C42.6295 12.7694 48.2878 11.6483 53.9999 11.6666C57.4636 11.6883 60.9146 12.0879 64.2916 12.8583C64.9983 13.0769 65.7423 13.1484 66.4777 13.0685C67.2131 12.9885 67.9243 12.7588 68.5675 12.3934C69.2107 12.0281 69.7723 11.5349 70.2175 10.9442C70.6628 10.3535 70.9824 9.67786 71.1566 8.95893C71.3308 8.24 71.3558 7.49301 71.2303 6.76402C71.1047 6.03503 70.8311 5.33949 70.4265 4.72027C70.0218 4.10105 69.4946 3.57128 68.8773 3.16362C68.26 2.75597 67.5658 2.47906 66.8374 2.34998C62.6295 1.36004 58.3227 0.851228 53.9999 0.833313C43.2984 0.888907 32.8532 4.11322 23.9824 10.0993C15.1115 16.0855 8.21268 24.5652 4.1564 34.4683C0.100121 44.3714 -0.931801 55.2542 1.19086 65.7432C3.31352 76.2322 8.49564 85.8574 16.0833 93.4042C26.1403 103.466 39.7739 109.133 53.9999 109.167C68.3658 109.167 82.1433 103.46 92.3015 93.3016C102.46 83.1434 108.167 69.3659 108.167 55C108.167 53.5634 107.596 52.1856 106.58 51.1698C105.564 50.154 104.187 49.5833 102.75 49.5833Z" fill="#36C9BB"/>
</svg>
