<svg width="20" height="20" viewBox="0 0 20 20" fill="currentColor" xmlns="http://www.w3.org/2000/svg">
<path d="M0.95932 0.789397C0.95932 0.353418 1.31275 0 1.74872 0H19.1198C19.7703 0 20.1417 0.742707 19.7513 1.2631L15.3682 7.10586L19.7513 12.9486C20.1417 13.469 19.7703 14.2117 19.1198 14.2117L2.53811 14.2112V19.2106C2.53811 19.6102 2.24114 19.9405 1.85583 19.9927L1.74872 20C1.34907 20 1.0188 19.703 0.96653 19.3177L0.95932 19.2106V0.789397ZM17.5408 1.57879H2.53811V12.6329H17.5408L13.7499 7.57953C13.5394 7.29886 13.5394 6.91285 13.7499 6.63215L17.5408 1.57879Z" fill="currentColor"/>
</svg>
