<svg width="19" height="20" viewBox="0 0 19 20" fill="currentColor" xmlns="http://www.w3.org/2000/svg">
<path d="M7.95992 0.557768C8.84183 -0.185924 10.1314 -0.185924 11.0133 0.557778L18.1178 6.54885C18.6513 6.99882 18.9593 7.66126 18.9593 8.35925V18.1581C18.9593 19.1753 18.1347 20 17.1174 20H13.4336C12.4163 20 11.5916 19.1753 11.5916 18.1581V12.888C11.5916 12.7427 11.4739 12.6249 11.3285 12.6249H7.64468C7.49933 12.6249 7.38154 12.7427 7.38154 12.888V18.1581C7.38154 19.1753 6.5569 20 5.53964 20H1.8558C0.838538 20 0.0138855 19.1753 0.0138855 18.1581V8.35925C0.0138855 7.66126 0.321801 6.99882 0.855399 6.54885L7.95992 0.557768ZM9.9955 1.76471C9.70153 1.51681 9.27168 1.51681 8.97771 1.76471L1.87318 7.75579C1.69531 7.90577 1.59267 8.12659 1.59267 8.35925V18.1581C1.59267 18.3034 1.71048 18.4212 1.8558 18.4212H5.53964C5.68496 18.4212 5.80276 18.3034 5.80276 18.1581V12.888C5.80276 11.8707 6.62742 11.0461 7.64468 11.0461H11.3285C12.3458 11.0461 13.1704 11.8707 13.1704 12.888V18.1581C13.1704 18.3034 13.2882 18.4212 13.4336 18.4212H17.1174C17.2628 18.4212 17.3805 18.3034 17.3805 18.1581V8.35925C17.3805 8.12659 17.2779 7.90577 17.1 7.75579L9.9955 1.76471Z" fill="currentColor"/>
</svg>
