<svg width="17" height="20" viewBox="0 0 17 20" fill="currentColor" xmlns="http://www.w3.org/2000/svg">
<path d="M14.0039 11.9975C15.2463 11.9975 16.2532 13.0044 16.2532 14.2468V14.8223C16.2532 15.7167 15.9336 16.5817 15.352 17.2612C13.7823 19.095 11.3947 20 8.24881 20C5.10234 20 2.71591 19.0947 1.14933 17.2601C0.569452 16.5811 0.250885 15.7174 0.250885 14.8245V14.2468C0.250885 13.0044 1.25792 11.9975 2.50016 11.9975H14.0039ZM14.0039 13.4977H2.50016C2.08649 13.4977 1.75115 13.8331 1.75115 14.2468V14.8245C1.75115 15.3603 1.9423 15.8785 2.29021 16.2858C3.54374 17.7538 5.50998 18.4997 8.24881 18.4997C10.9876 18.4997 12.9555 17.7538 14.2122 16.2856C14.5612 15.8779 14.753 15.3589 14.753 14.8223V14.2468C14.753 13.8331 14.4176 13.4977 14.0039 13.4977ZM8.24881 0C11.0107 0 13.2497 2.23898 13.2497 5.00089C13.2497 7.76282 11.0107 10.0018 8.24881 10.0018C5.48685 10.0018 3.24787 7.76282 3.24787 5.00089C3.24787 2.23898 5.48685 0 8.24881 0ZM8.24881 1.50027C6.31546 1.50027 4.74814 3.06756 4.74814 5.00089C4.74814 6.93424 6.31546 8.50154 8.24881 8.50154C10.1822 8.50154 11.7494 6.93424 11.7494 5.00089C11.7494 3.06756 10.1822 1.50027 8.24881 1.50027Z" fill="currentColor"/>
</svg>
