<svg width="19" height="19" viewBox="0 0 19 19" fill="currentColor" xmlns="http://www.w3.org/2000/svg">
<path d="M17.8333 9.32292C17.5571 9.32292 17.2921 9.43266 17.0968 9.62801C16.9014 9.82336 16.7917 10.0883 16.7917 10.3646V16.1667C16.7917 16.3324 16.7258 16.4914 16.6086 16.6086C16.4914 16.7258 16.3324 16.7917 16.1667 16.7917H2.83333C2.66757 16.7917 2.5086 16.7258 2.39139 16.6086C2.27418 16.4914 2.20833 16.3324 2.20833 16.1667V2.83333C2.20833 2.66757 2.27418 2.5086 2.39139 2.39139C2.5086 2.27418 2.66757 2.20833 2.83333 2.20833H12.8021C13.0784 2.20833 13.3433 2.09859 13.5387 1.90324C13.734 1.70789 13.8438 1.44293 13.8438 1.16667C13.8438 0.890399 13.734 0.625447 13.5387 0.430097C13.3433 0.234747 13.0784 0.125 12.8021 0.125H2.83333C2.11588 0.127744 1.4286 0.413966 0.921283 0.921283C0.413966 1.4286 0.127744 2.11588 0.125 2.83333V16.1667C0.127744 16.8841 0.413966 17.5714 0.921283 18.0787C1.4286 18.586 2.11588 18.8723 2.83333 18.875H16.1667C16.8841 18.8723 17.5714 18.586 18.0787 18.0787C18.586 17.5714 18.8723 16.8841 18.875 16.1667V10.3646C18.875 10.0883 18.7653 9.82336 18.5699 9.62801C18.3746 9.43266 18.1096 9.32292 17.8333 9.32292Z" fill="currentColor"/>
<path d="M8.16656 8.45822C7.97109 8.28243 7.71637 8.18705 7.45351 8.19121C7.19065 8.19538 6.93908 8.29878 6.74928 8.48068C6.55947 8.66258 6.44546 8.90952 6.43012 9.17196C6.41478 9.43441 6.49924 9.69295 6.66656 9.89572L8.97906 12.3228C9.07588 12.4244 9.19222 12.5053 9.3211 12.5608C9.44998 12.6163 9.58874 12.6452 9.72906 12.6457C9.86863 12.6465 10.0069 12.6193 10.1358 12.5656C10.2646 12.5119 10.3814 12.4329 10.4791 12.3332L17.5416 5.04156C17.6373 4.94307 17.7127 4.82668 17.7635 4.69904C17.8143 4.5714 17.8394 4.43501 17.8375 4.29766C17.8356 4.16031 17.8066 4.02468 17.7522 3.89852C17.6979 3.77236 17.6192 3.65815 17.5207 3.56239C17.4222 3.46663 17.3058 3.39122 17.1782 3.34044C17.0506 3.28966 16.9142 3.26453 16.7768 3.26646C16.6395 3.2684 16.5039 3.29737 16.3777 3.35172C16.2515 3.40607 16.1373 3.48473 16.0416 3.58322L9.73948 10.1041L8.16656 8.45822Z" fill="currentColor"/>
</svg>
