<svg width="21" height="20" viewBox="0 0 21 20" fill="currentColor" xmlns="http://www.w3.org/2000/svg">
<path d="M0.910645 0.857143C0.910645 0.38376 1.2944 0 1.76779 0H2.4058C3.49205 0 4.14244 0.730274 4.51436 1.40913C4.76226 1.86165 4.94159 2.38649 5.08187 2.86166C5.11986 2.85867 5.15835 2.85714 5.19727 2.85714H19.4799C20.4287 2.85714 21.1138 3.76505 20.8537 4.67749L18.7648 12.0022C18.3799 13.3522 17.1463 14.2832 15.7425 14.2832H8.94467C7.52925 14.2832 6.28847 13.337 5.91388 11.9721L5.04475 8.80514L3.60635 3.94946L3.60402 3.94096C3.42607 3.29201 3.25907 2.68577 3.01091 2.2328C2.76991 1.79291 2.57781 1.71429 2.4058 1.71429H1.76779C1.2944 1.71429 0.910645 1.33053 0.910645 0.857143ZM6.70816 8.38891L7.56703 11.5184C7.73731 12.1389 8.3013 12.5689 8.94467 12.5689H15.7425C16.3806 12.5689 16.9413 12.1457 17.1164 11.5321L19.1013 4.57143H5.57978L6.69243 8.32777C6.69846 8.34811 6.7037 8.36846 6.70816 8.38891ZM10.6249 17.7143C10.6249 18.9767 9.60161 20 8.33922 20C7.07685 20 6.0535 18.9767 6.0535 17.7143C6.0535 16.4519 7.07685 15.4286 8.33922 15.4286C9.60161 15.4286 10.6249 16.4519 10.6249 17.7143ZM8.91064 17.7143C8.91064 17.3987 8.6548 17.1429 8.33922 17.1429C8.02363 17.1429 7.76779 17.3987 7.76779 17.7143C7.76779 18.0298 8.02363 18.2857 8.33922 18.2857C8.6548 18.2857 8.91064 18.0298 8.91064 17.7143ZM18.6249 17.7143C18.6249 18.9767 17.6016 20 16.3392 20C15.0768 20 14.0535 18.9767 14.0535 17.7143C14.0535 16.4519 15.0768 15.4286 16.3392 15.4286C17.6016 15.4286 18.6249 16.4519 18.6249 17.7143ZM16.9106 17.7143C16.9106 17.3987 16.6548 17.1429 16.3392 17.1429C16.0237 17.1429 15.7678 17.3987 15.7678 17.7143C15.7678 18.0298 16.0237 18.2857 16.3392 18.2857C16.6548 18.2857 16.9106 18.0298 16.9106 17.7143Z" fill="currentColor"/>
</svg>
